<?xml version="1.0" encoding="UTF-8" standalone="no"?>
<svg width="64" height="64" viewBox="0 0 64 64" fill="none" xmlns="http://www.w3.org/2000/svg">
  <!-- Shield background with Spotify green -->
  <path d="M32 4L8 16V36C8 48.4 18.2 60 32 62C45.8 60 56 48.4 56 36V16L32 4Z" fill="#1DB954" stroke="#191414" stroke-width="2"/>
  
  <!-- Network symbol -->
  <circle cx="32" cy="24" r="6" fill="#191414"/>
  <circle cx="20" cy="36" r="4" fill="#191414"/>
  <circle cx="44" cy="36" r="4" fill="#191414"/>
  <circle cx="32" cy="48" r="4" fill="#191414"/>
  
  <!-- Connection lines -->
  <line x1="29" y1="27" x2="23" y2="33" stroke="#191414" stroke-width="2"/>
  <line x1="35" y1="27" x2="41" y2="33" stroke="#191414" stroke-width="2"/>
  <line x1="32" y1="30" x2="32" y2="44" stroke="#191414" stroke-width="2"/>
  <line x1="24" y1="36" x2="40" y2="36" stroke="#191414" stroke-width="2"/>
  
  <!-- Glow effect -->
  <path d="M32 6L10 17V36C10 47.2 19.4 58 32 60C44.6 58 54 47.2 54 36V17L32 6Z" fill="url(#paint0_radial)" fill-opacity="0.3"/>
  
  <defs>
    <radialGradient id="paint0_radial" cx="0" cy="0" r="1" gradientUnits="userSpaceOnUse" gradientTransform="translate(32 32) rotate(90) scale(32)">
      <stop stop-color="white"/>
      <stop offset="1" stop-color="white" stop-opacity="0"/>
    </radialGradient>
  </defs>
</svg>