<?xml version="1.0" encoding="UTF-8" standalone="no"?>
<svg width="128" height="128" viewBox="0 0 128 128" fill="none" xmlns="http://www.w3.org/2000/svg">
  <!-- Shield background -->
  <path d="M64 8L16 32V72C16 96.8 36.4 120 64 124C91.6 120 112 96.8 112 72V32L64 8Z" fill="#1DB954" stroke="#191414" stroke-width="4"/>
  
  <!-- Network symbol -->
  <circle cx="64" cy="48" r="12" fill="#191414"/>
  <circle cx="40" cy="72" r="8" fill="#191414"/>
  <circle cx="88" cy="72" r="8" fill="#191414"/>
  <circle cx="64" cy="96" r="8" fill="#191414"/>
  
  <!-- Connection lines -->
  <line x1="58" y1="54" x2="46" y2="66" stroke="#191414" stroke-width="4"/>
  <line x1="70" y1="54" x2="82" y2="66" stroke="#191414" stroke-width="4"/>
  <line x1="64" y1="60" x2="64" y2="88" stroke="#191414" stroke-width="4"/>
  <line x1="48" y1="72" x2="80" y2="72" stroke="#191414" stroke-width="4"/>
  
  <!-- Glow effect -->
  <path d="M64 12L20 34V72C20 94.4 38.8 116 64 120C89.2 116 108 94.4 108 72V34L64 12Z" fill="url(#paint0_radial)" fill-opacity="0.3"/>
  
  <defs>
    <radialGradient id="paint0_radial" cx="0" cy="0" r="1" gradientUnits="userSpaceOnUse" gradientTransform="translate(64 64) rotate(90) scale(64)">
      <stop stop-color="white"/>
      <stop offset="1" stop-color="white" stop-opacity="0"/>
    </radialGradient>
  </defs>
</svg>